<svg xmlns="http://www.w3.org/2000/svg" enable-background="new 0 0 24 24" viewBox="0 0 24 24" id="playstation"><path fill="#ECB731" d="M16.157,20.126l-3.295-1.087l-3.296,1.183l3.36,1.056L16.157,20.126L16.157,20.126z M7.264,17.247l3.423,1.056c-2.879,0.96-5.663,1.056-8.382,0.32c-1.44-0.385-2.239-0.897-2.304-1.601c-0.032-0.479,0.609-1.023,1.823-1.535l3.359,1.056l-0.863,0.32c-0.256,0.096-0.481,0.224-0.64,0.319c-0.16,0.16-0.097,0.32,0.159,0.481l1.281,0.16l1.344-0.256L7.264,17.247L7.264,17.247z"></path><path fill="#CD9F2B" d="M11.418,19.557l-1.851,0.665l3.36,1.056l1.829-0.652L11.418,19.557L11.418,19.557z M0.651,16.109c-0.446,0.314-0.669,0.625-0.65,0.914c0.065,0.704,0.864,1.216,2.304,1.601c1.192,0.323,2.397,0.485,3.617,0.485c1.007,0,2.024-0.111,3.053-0.334l-3.3-1.057L5.12,17.823l-1.281-0.16c-0.256-0.16-0.319-0.321-0.159-0.481c0.035-0.021,0.073-0.044,0.114-0.067L0.651,16.109L0.651,16.109z"></path><path fill="#5CB39B" d="M10.782,14.56l-3.518-1.056l-4.64,1.663l-0.8,0.32l3.359,1.056L10.782,14.56L10.782,14.56z M16.541,16.287l-5.023,1.76l-0.832,0.256l-3.423-1.055l5.694-2.048L16.541,16.287L16.541,16.287z M18.717,16.927l-5.854,2.111l3.295,1.088l5.406-1.919l0.64-0.288L18.717,16.927L18.717,16.927z"></path><path fill="#509C87" d="M16.011,17.903l-3.149,1.136l3.295,1.088l3.224-1.144L16.011,17.903L16.011,17.903z M10.42,16.112l-3.156,1.135l3.423,1.055l0.832-0.256l2.361-0.827L10.42,16.112L10.42,16.112z M4.91,14.347l-2.286,0.819l-0.8,0.32l3.359,1.056l3.125-1.107L4.91,14.347L4.91,14.347z"></path><path fill="#5175B8" d="M9.022,12.928l3.455,0.992l-1.695,0.64l-3.519-1.056L9.022,12.928L9.022,12.928z M12.958,15.199c1.663-0.639,3.263-0.96,4.799-0.992c1.344-0.063,2.783,0.097,4.223,0.576c1.281,0.416,1.984,0.896,2.016,1.504c0.064,0.639-0.512,1.151-1.791,1.632l-3.487-0.992l1.184-0.448c0.48-0.16,0.704-0.32,0.64-0.512c-0.064-0.159-0.224-0.287-0.576-0.319l-1.184-0.065l-0.895,0.225l-1.344,0.48L12.958,15.199L12.958,15.199z"></path><path fill="#4766A0" d="M20.55,16.052c-0.019,0.156-0.242,0.292-0.649,0.427l-1.184,0.448l3.487,0.992c0.719-0.27,1.215-0.55,1.501-0.857L20.55,16.052L20.55,16.052z M15.542,14.448c-0.844,0.164-1.705,0.413-2.584,0.751l3.583,1.088l1.344-0.48l0.895-0.225l0.368,0.02L15.542,14.448L15.542,14.448z M9.022,12.928l-1.759,0.576l3.519,1.056l1.695-0.64L9.022,12.928L9.022,12.928z"></path><path fill="#CC2229" d="M8.959,2.723v17.34l3.967,1.215V6.785c0-0.384,0.032-0.64,0.192-0.8c0.16-0.224,0.32-0.256,0.544-0.159c0.544,0.159,0.8,0.64,0.8,1.439v5.822c1.215,0.576,2.303,0.64,3.103,0.032c0.832-0.576,1.28-1.599,1.28-3.135c0-1.6-0.321-2.814-1.025-3.616c-0.64-0.863-1.759-1.567-3.423-2.142C12.222,3.522,10.398,3.011,8.959,2.723L8.959,2.723z"></path><path fill="#B21E24" d="M8.959,2.723v17.34l2.09,0.64V3.222C10.281,3.015,9.584,2.848,8.959,2.723L8.959,2.723z"></path></svg>